<svg width="1016" height="1282" viewBox="0 0 1016 1282" fill="none" xmlns="http://www.w3.org/2000/svg">
<g clip-path="url(#clip0_1_17)" filter="url(#filter0_d_1_17)">
<g filter="url(#filter1_d_1_17)">
<path d="M72.9918 181.015C72.7049 179.872 73.2821 178.671 74.3392 178.151C395.343 20.2719 586.566 18.3148 943.363 178.098C944.551 178.63 945.165 180.001 944.73 181.229L906.943 287.895C906.442 289.31 904.761 289.94 903.417 289.272C552.339 114.776 435.607 118.604 103.359 289.088C101.927 289.823 100.125 289.064 99.733 287.502L72.9918 181.015Z" stroke="black" stroke-width="3" shape-rendering="crispEdges"/>
</g>
<g clip-path="url(#clip1_1_17)">
<path d="M830.461 291.638L512.196 217.145C511.41 216.961 510.591 216.961 509.804 217.145L191.539 291.638C185.469 293.059 186.494 302 192.736 302H829.264C835.504 302 836.534 293.06 830.461 291.638Z" stroke="black" stroke-width="10"/>
<line x1="187" y1="296" x2="187" y2="896" stroke="black" stroke-width="10"/>
<line x1="835" y1="296" x2="835" y2="896" stroke="black" stroke-width="10"/>
</g>
<circle cx="508" cy="311" r="95" fill="black"/>
<g clip-path="url(#clip2_1_17)">
<rect x="182" y="703" width="8" height="40" rx="2.5" fill="#0F0F0F"/>
<path d="M156 729.5C156 719.835 163.835 712 173.5 712H198.5C208.165 712 216 719.835 216 729.5V878C216 880.761 213.761 883 211 883H161C158.239 883 156 880.761 156 878V729.5Z" fill="black"/>
<path d="M177.621 632.5L185.345 666.5L182.5 638L185.345 622.5L191.414 679.882L186.508 633.5L196.379 660.349L195 642.5C195 642.5 203 637.933 203 678.281C203 718.63 171 722.472 171 678.281C171 634.09 177.621 632.5 177.621 632.5Z" fill="black"/>
</g>
<g filter="url(#filter2_d_1_17)">
<path d="M81.4575 1153.57L74.2443 1140.25H99.4803L108.087 1183.75H73.0514L81.7531 1165.61L84.6771 1159.51L81.4575 1153.57ZM933.273 1140.25H952.59L946.8 1155.05L945.021 1159.6L946.62 1164.22L953.387 1183.75H924.052L933.273 1140.25Z" stroke="black" stroke-width="26.5" shape-rendering="crispEdges"/>
</g>
<g filter="url(#filter3_d_1_17)">
<path d="M70 1071H967L931.5 1169H102.5L70 1071Z" fill="black"/>
<path d="M104.305 1166.5L73.463 1073.5H963.435L929.747 1166.5H104.305Z" stroke="black" stroke-width="5"/>
</g>
<path d="M124.963 1136V1103.27H136.405C138.685 1103.27 140.565 1103.67 142.046 1104.46C143.527 1105.23 144.629 1106.28 145.354 1107.6C146.078 1108.91 146.44 1110.37 146.44 1111.97C146.44 1113.37 146.19 1114.53 145.689 1115.45C145.199 1116.37 144.549 1117.09 143.74 1117.62C142.941 1118.16 142.072 1118.55 141.135 1118.81V1119.12C142.136 1119.19 143.143 1119.54 144.155 1120.18C145.167 1120.82 146.014 1121.74 146.696 1122.93C147.378 1124.12 147.719 1125.58 147.719 1127.31C147.719 1128.95 147.346 1130.42 146.6 1131.73C145.854 1133.04 144.677 1134.08 143.069 1134.85C141.46 1135.62 139.366 1136 136.788 1136H124.963ZM128.926 1132.48H136.788C139.377 1132.48 141.215 1131.98 142.301 1130.98C143.399 1129.97 143.947 1128.75 143.947 1127.31C143.947 1126.2 143.665 1125.18 143.1 1124.24C142.536 1123.29 141.732 1122.53 140.688 1121.97C139.643 1121.39 138.408 1121.11 136.98 1121.11H128.926V1132.48ZM128.926 1117.65H136.277C137.47 1117.65 138.546 1117.42 139.505 1116.95C140.474 1116.48 141.241 1115.82 141.806 1114.97C142.381 1114.12 142.669 1113.12 142.669 1111.97C142.669 1110.53 142.168 1109.31 141.167 1108.31C140.165 1107.29 138.578 1106.79 136.405 1106.79H128.926V1117.65ZM154.231 1136V1103.27H165.289C167.846 1103.27 169.944 1103.71 171.585 1104.58C173.226 1105.45 174.44 1106.63 175.229 1108.15C176.017 1109.66 176.411 1111.38 176.411 1113.31C176.411 1115.24 176.017 1116.95 175.229 1118.44C174.44 1119.93 173.231 1121.1 171.601 1121.95C169.971 1122.8 167.888 1123.22 165.353 1123.22H156.404V1119.64H165.225C166.972 1119.64 168.378 1119.38 169.444 1118.87C170.52 1118.36 171.297 1117.63 171.777 1116.7C172.267 1115.75 172.512 1114.62 172.512 1113.31C172.512 1112 172.267 1110.85 171.777 1109.87C171.287 1108.89 170.504 1108.14 169.428 1107.6C168.352 1107.06 166.93 1106.79 165.161 1106.79H158.194V1136H154.231ZM169.635 1121.3L177.689 1136H173.087L165.161 1121.3H169.635ZM186.978 1103.27V1136H183.015V1103.27H186.978ZM220.876 1103.27V1136H217.04L199.207 1110.3H198.887V1136H194.924V1103.27H198.759L216.657 1129.03H216.977V1103.27H220.876ZM251.178 1113.5C250.826 1112.42 250.363 1111.46 249.788 1110.61C249.223 1109.74 248.547 1109.01 247.758 1108.4C246.981 1107.8 246.096 1107.33 245.106 1107.01C244.115 1106.69 243.028 1106.53 241.846 1106.53C239.907 1106.53 238.144 1107.03 236.556 1108.03C234.969 1109.04 233.706 1110.51 232.769 1112.46C231.831 1114.41 231.363 1116.8 231.363 1119.64C231.363 1122.47 231.837 1124.86 232.785 1126.81C233.733 1128.76 235.017 1130.24 236.636 1131.24C238.255 1132.24 240.077 1132.74 242.101 1132.74C243.976 1132.74 245.628 1132.34 247.055 1131.54C248.493 1130.73 249.612 1129.59 250.411 1128.12C251.221 1126.64 251.625 1124.9 251.625 1122.9L252.84 1123.15H242.996V1119.64H255.461V1123.15C255.461 1125.85 254.885 1128.19 253.735 1130.18C252.595 1132.18 251.018 1133.72 249.005 1134.82C247.002 1135.9 244.701 1136.45 242.101 1136.45C239.204 1136.45 236.657 1135.77 234.463 1134.4C232.279 1133.04 230.574 1131.1 229.349 1128.59C228.135 1126.07 227.527 1123.09 227.527 1119.64C227.527 1117.05 227.874 1114.72 228.566 1112.65C229.269 1110.58 230.26 1108.81 231.538 1107.35C232.817 1105.89 234.33 1104.77 236.077 1103.99C237.824 1103.21 239.747 1102.83 241.846 1102.83C243.571 1102.83 245.18 1103.09 246.672 1103.61C248.174 1104.12 249.511 1104.85 250.683 1105.8C251.865 1106.74 252.851 1107.86 253.639 1109.17C254.427 1110.47 254.971 1111.91 255.269 1113.5H251.178ZM274.904 1136V1103.27H278.868V1132.48H294.081V1136H274.904ZM304.18 1103.27V1136H300.217V1103.27H304.18ZM334.498 1113.5C334.147 1112.42 333.683 1111.46 333.108 1110.61C332.543 1109.74 331.867 1109.01 331.079 1108.4C330.301 1107.8 329.417 1107.33 328.426 1107.01C327.435 1106.69 326.348 1106.53 325.166 1106.53C323.227 1106.53 321.464 1107.03 319.877 1108.03C318.289 1109.04 317.027 1110.51 316.089 1112.46C315.152 1114.41 314.683 1116.8 314.683 1119.64C314.683 1122.47 315.157 1124.86 316.105 1126.81C317.053 1128.76 318.337 1130.24 319.956 1131.24C321.576 1132.24 323.397 1132.74 325.422 1132.74C327.297 1132.74 328.948 1132.34 330.375 1131.54C331.814 1130.73 332.932 1129.59 333.731 1128.12C334.541 1126.64 334.946 1124.9 334.946 1122.9L336.16 1123.15H326.316V1119.64H338.781V1123.15C338.781 1125.85 338.206 1128.19 337.055 1130.18C335.915 1132.18 334.339 1133.72 332.325 1134.82C330.322 1135.9 328.021 1136.45 325.422 1136.45C322.524 1136.45 319.978 1135.77 317.783 1134.4C315.599 1133.04 313.895 1131.1 312.669 1128.59C311.455 1126.07 310.848 1123.09 310.848 1119.64C310.848 1117.05 311.194 1114.72 311.886 1112.65C312.59 1110.58 313.58 1108.81 314.859 1107.35C316.137 1105.89 317.65 1104.77 319.397 1103.99C321.144 1103.21 323.067 1102.83 325.166 1102.83C326.892 1102.83 328.5 1103.09 329.992 1103.61C331.494 1104.12 332.831 1104.85 334.003 1105.8C335.185 1106.74 336.171 1107.86 336.959 1109.17C337.748 1110.47 338.291 1111.91 338.589 1113.5H334.498ZM345.569 1136V1103.27H349.532V1117.85H366.982V1103.27H370.945V1136H366.982V1121.36H349.532V1136H345.569ZM377.089 1106.79V1103.27H401.635V1106.79H391.344V1136H387.381V1106.79H377.089ZM418.618 1106.79V1103.27H443.163V1106.79H432.872V1136H428.909V1106.79H418.618ZM449.279 1136V1103.27H453.243V1117.85H470.693V1103.27H474.656V1136H470.693V1121.36H453.243V1136H449.279ZM482.59 1136V1103.27H493.648C496.205 1103.27 498.304 1103.71 499.944 1104.58C501.585 1105.45 502.8 1106.63 503.588 1108.15C504.376 1109.66 504.77 1111.38 504.77 1113.31C504.77 1115.24 504.376 1116.95 503.588 1118.44C502.8 1119.93 501.59 1121.1 499.96 1121.95C498.33 1122.8 496.248 1123.22 493.712 1123.22H484.763V1119.64H493.584C495.331 1119.64 496.738 1119.38 497.803 1118.87C498.879 1118.36 499.657 1117.63 500.136 1116.7C500.626 1115.75 500.871 1114.62 500.871 1113.31C500.871 1112 500.626 1110.85 500.136 1109.87C499.646 1108.89 498.863 1108.14 497.787 1107.6C496.711 1107.06 495.289 1106.79 493.52 1106.79H486.553V1136H482.59ZM497.995 1121.3L506.049 1136H501.447L493.52 1121.3H497.995ZM538.988 1119.64C538.988 1123.09 538.365 1126.07 537.118 1128.59C535.872 1131.1 534.162 1133.04 531.989 1134.4C529.815 1135.77 527.333 1136.45 524.542 1136.45C521.751 1136.45 519.268 1135.77 517.095 1134.4C514.922 1133.04 513.212 1131.1 511.965 1128.59C510.719 1126.07 510.096 1123.09 510.096 1119.64C510.096 1116.18 510.719 1113.2 511.965 1110.69C513.212 1108.17 514.922 1106.23 517.095 1104.87C519.268 1103.51 521.751 1102.83 524.542 1102.83C527.333 1102.83 529.815 1103.51 531.989 1104.87C534.162 1106.23 535.872 1108.17 537.118 1110.69C538.365 1113.2 538.988 1116.18 538.988 1119.64ZM535.153 1119.64C535.153 1116.8 534.679 1114.41 533.73 1112.46C532.793 1110.51 531.52 1109.04 529.911 1108.03C528.313 1107.03 526.523 1106.53 524.542 1106.53C522.56 1106.53 520.765 1107.03 519.157 1108.03C517.559 1109.04 516.285 1110.51 515.337 1112.46C514.4 1114.41 513.931 1116.8 513.931 1119.64C513.931 1122.47 514.4 1124.86 515.337 1126.81C516.285 1128.76 517.559 1130.24 519.157 1131.24C520.765 1132.24 522.56 1132.74 524.542 1132.74C526.523 1132.74 528.313 1132.24 529.911 1131.24C531.52 1130.24 532.793 1128.76 533.73 1126.81C534.679 1124.86 535.153 1122.47 535.153 1119.64ZM567.129 1103.27H571.092V1124.94C571.092 1127.18 570.565 1129.18 569.51 1130.93C568.466 1132.68 566.99 1134.06 565.083 1135.07C563.176 1136.07 560.939 1136.58 558.372 1136.58C555.804 1136.58 553.567 1136.07 551.66 1135.07C549.753 1134.06 548.272 1132.68 547.218 1130.93C546.174 1129.18 545.652 1127.18 545.652 1124.94V1103.27H549.615V1124.62C549.615 1126.22 549.966 1127.64 550.669 1128.89C551.372 1130.12 552.374 1131.1 553.674 1131.81C554.984 1132.52 556.55 1132.87 558.372 1132.87C560.193 1132.87 561.76 1132.52 563.07 1131.81C564.38 1131.1 565.382 1130.12 566.074 1128.89C566.777 1127.64 567.129 1126.22 567.129 1124.62V1103.27ZM601.378 1113.5C601.027 1112.42 600.563 1111.46 599.988 1110.61C599.423 1109.74 598.747 1109.01 597.958 1108.4C597.181 1107.8 596.297 1107.33 595.306 1107.01C594.315 1106.69 593.228 1106.53 592.046 1106.53C590.107 1106.53 588.344 1107.03 586.756 1108.03C585.169 1109.04 583.907 1110.51 582.969 1112.46C582.032 1114.41 581.563 1116.8 581.563 1119.64C581.563 1122.47 582.037 1124.86 582.985 1126.81C583.933 1128.76 585.217 1130.24 586.836 1131.24C588.456 1132.24 590.277 1132.74 592.301 1132.74C594.176 1132.74 595.828 1132.34 597.255 1131.54C598.694 1130.73 599.812 1129.59 600.611 1128.12C601.421 1126.64 601.826 1124.9 601.826 1122.9L603.04 1123.15H593.196V1119.64H605.661V1123.15C605.661 1125.85 605.086 1128.19 603.935 1130.18C602.795 1132.18 601.218 1133.72 599.205 1134.82C597.202 1135.9 594.901 1136.45 592.301 1136.45C589.404 1136.45 586.858 1135.77 584.663 1134.4C582.479 1133.04 580.775 1131.1 579.549 1128.59C578.335 1126.07 577.728 1123.09 577.728 1119.64C577.728 1117.05 578.074 1114.72 578.766 1112.65C579.469 1110.58 580.46 1108.81 581.739 1107.35C583.017 1105.89 584.53 1104.77 586.277 1103.99C588.024 1103.21 589.947 1102.83 592.046 1102.83C593.772 1102.83 595.38 1103.09 596.872 1103.61C598.374 1104.12 599.711 1104.85 600.883 1105.8C602.065 1106.74 603.051 1107.86 603.839 1109.17C604.627 1110.47 605.171 1111.91 605.469 1113.5H601.378ZM612.448 1136V1103.27H616.411V1117.85H633.862V1103.27H637.825V1136H633.862V1121.36H616.411V1136H612.448ZM658.415 1136V1103.27H678.167V1106.79H662.378V1117.85H677.144V1121.36H662.378V1132.48H678.422V1136H658.415ZM695.409 1136H685.31V1103.27H695.857C699.031 1103.27 701.748 1103.93 704.006 1105.24C706.265 1106.54 707.996 1108.41 709.2 1110.85C710.404 1113.28 711.006 1116.18 711.006 1119.57C711.006 1122.98 710.399 1125.92 709.184 1128.38C707.97 1130.83 706.201 1132.71 703.879 1134.03C701.556 1135.34 698.733 1136 695.409 1136ZM689.273 1132.48H695.153C697.859 1132.48 700.102 1131.96 701.881 1130.92C703.66 1129.87 704.987 1128.39 705.86 1126.46C706.734 1124.53 707.171 1122.24 707.171 1119.57C707.171 1116.93 706.739 1114.66 705.876 1112.75C705.013 1110.83 703.724 1109.36 702.009 1108.34C700.294 1107.31 698.158 1106.79 695.601 1106.79H689.273V1132.48ZM739.131 1103.27H743.094V1124.94C743.094 1127.18 742.566 1129.18 741.512 1130.93C740.468 1132.68 738.992 1134.06 737.085 1135.07C735.178 1136.07 732.941 1136.58 730.374 1136.58C727.806 1136.58 725.569 1136.07 723.662 1135.07C721.755 1134.06 720.274 1132.68 719.22 1130.93C718.176 1129.18 717.653 1127.18 717.653 1124.94V1103.27H721.617V1124.62C721.617 1126.22 721.968 1127.64 722.671 1128.89C723.374 1130.12 724.376 1131.1 725.676 1131.81C726.986 1132.52 728.552 1132.87 730.374 1132.87C732.195 1132.87 733.761 1132.52 735.072 1131.81C736.382 1131.1 737.384 1130.12 738.076 1128.89C738.779 1127.64 739.131 1126.22 739.131 1124.62V1103.27ZM777.343 1113.5H773.38C773.146 1112.36 772.736 1111.36 772.15 1110.5C771.574 1109.63 770.871 1108.91 770.04 1108.32C769.22 1107.73 768.309 1107.28 767.308 1106.98C766.306 1106.68 765.262 1106.53 764.176 1106.53C762.194 1106.53 760.399 1107.03 758.79 1108.03C757.192 1109.04 755.919 1110.51 754.971 1112.46C754.034 1114.41 753.565 1116.8 753.565 1119.64C753.565 1122.47 754.034 1124.86 754.971 1126.81C755.919 1128.76 757.192 1130.24 758.79 1131.24C760.399 1132.24 762.194 1132.74 764.176 1132.74C765.262 1132.74 766.306 1132.59 767.308 1132.29C768.309 1131.99 769.22 1131.55 770.04 1130.97C770.871 1130.37 771.574 1129.64 772.15 1128.78C772.736 1127.9 773.146 1126.9 773.38 1125.77H777.343C777.045 1127.45 776.502 1128.94 775.713 1130.26C774.925 1131.58 773.945 1132.71 772.773 1133.63C771.601 1134.55 770.285 1135.25 768.826 1135.73C767.377 1136.21 765.827 1136.45 764.176 1136.45C761.384 1136.45 758.902 1135.77 756.729 1134.4C754.556 1133.04 752.846 1131.1 751.599 1128.59C750.353 1126.07 749.73 1123.09 749.73 1119.64C749.73 1116.18 750.353 1113.2 751.599 1110.69C752.846 1108.17 754.556 1106.23 756.729 1104.87C758.902 1103.51 761.384 1102.83 764.176 1102.83C765.827 1102.83 767.377 1103.06 768.826 1103.54C770.285 1104.02 771.601 1104.73 772.773 1105.65C773.945 1106.57 774.925 1107.69 775.713 1109.01C776.502 1110.32 777.045 1111.82 777.343 1113.5ZM785.09 1136H780.935L792.952 1103.27H797.043L809.06 1136H804.905L795.125 1108.45H794.869L785.09 1136ZM786.624 1123.22H803.371V1126.73H786.624V1123.22ZM808.544 1106.79V1103.27H833.09V1106.79H822.799V1136H818.836V1106.79H808.544ZM843.169 1103.27V1136H839.206V1103.27H843.169ZM878.729 1119.64C878.729 1123.09 878.106 1126.07 876.859 1128.59C875.613 1131.1 873.903 1133.04 871.73 1134.4C869.556 1135.77 867.074 1136.45 864.283 1136.45C861.492 1136.45 859.01 1135.77 856.836 1134.4C854.663 1133.04 852.953 1131.1 851.707 1128.59C850.46 1126.07 849.837 1123.09 849.837 1119.64C849.837 1116.18 850.46 1113.2 851.707 1110.69C852.953 1108.17 854.663 1106.23 856.836 1104.87C859.01 1103.51 861.492 1102.83 864.283 1102.83C867.074 1102.83 869.556 1103.51 871.73 1104.87C873.903 1106.23 875.613 1108.17 876.859 1110.69C878.106 1113.2 878.729 1116.18 878.729 1119.64ZM874.894 1119.64C874.894 1116.8 874.42 1114.41 873.472 1112.46C872.534 1110.51 871.261 1109.04 869.652 1108.03C868.054 1107.03 866.265 1106.53 864.283 1106.53C862.301 1106.53 860.506 1107.03 858.898 1108.03C857.3 1109.04 856.027 1110.51 855.078 1112.46C854.141 1114.41 853.672 1116.8 853.672 1119.64C853.672 1122.47 854.141 1124.86 855.078 1126.81C856.027 1128.76 857.3 1130.24 858.898 1131.24C860.506 1132.24 862.301 1132.74 864.283 1132.74C866.265 1132.74 868.054 1132.24 869.652 1131.24C871.261 1130.24 872.534 1128.76 873.472 1126.81C874.42 1124.86 874.894 1122.47 874.894 1119.64ZM911.344 1103.27V1136H907.509L889.675 1110.3H889.356V1136H885.393V1103.27H889.228L907.126 1129.03H907.445V1103.27H911.344Z" fill="white"/>
<g filter="url(#filter4_d_1_17)">
<path d="M339.641 771.807C340.434 771.275 341.328 770.91 342.267 770.736L638.897 715.669C641.154 715.25 643.472 715.964 645.103 717.58L697.878 769.888C698.617 770.62 699.183 771.508 699.536 772.487L727.055 848.877C727.662 850.561 728.891 851.949 730.489 852.755L768.644 871.995C773.57 874.479 773.861 881.391 769.123 884.218C756.311 891.861 734.439 904.883 716.022 915.706C709.341 919.632 656.254 945.216 649.01 947.968C538.492 989.943 465.346 988.824 340.843 933.95L251.135 883.93C246.311 881.24 246.356 874.285 251.215 871.658L286.484 852.59C287.794 851.882 288.844 850.774 289.481 849.429L319.176 786.74C319.715 785.601 320.552 784.629 321.599 783.926L339.641 771.807Z" fill="black"/>
<path d="M342.723 773.194L639.354 718.127C640.804 717.858 642.295 718.316 643.343 719.355L696.118 771.663C696.593 772.134 696.957 772.705 697.184 773.334L724.703 849.725C725.527 852.01 727.194 853.894 729.364 854.987L767.518 874.227C770.713 875.838 770.858 880.272 767.842 882.071C755.031 889.714 733.165 902.732 714.756 913.55C711.529 915.447 696.712 922.767 681.642 930.025C666.569 937.285 651.616 944.304 648.122 945.631C593.044 966.55 547.479 976.654 500.27 974.78C453.07 972.906 404.012 959.05 341.959 931.709L252.352 881.746C249.251 880.017 249.28 875.546 252.403 873.857L287.673 854.789C289.451 853.828 290.875 852.325 291.74 850.499L321.435 787.811C321.782 787.078 322.32 786.453 322.993 786.002L341.035 773.883C341.545 773.54 342.119 773.306 342.723 773.194Z" stroke="black" stroke-width="5"/>
</g>
<g filter="url(#filter5_d_1_17)">
<path d="M332.489 464.361C332.331 460.532 336.362 457.956 339.77 459.707L353.096 466.554C354.178 467.11 355.021 468.041 355.465 469.174L369.637 505.272C370.174 506.641 370.082 508.177 369.384 509.472L362.305 522.605C361.912 523.334 361.706 524.149 361.706 524.977V533.604C361.706 536.366 363.944 538.604 366.706 538.604H391.654C393.424 538.604 395.062 537.668 395.961 536.144L402.651 524.797C403.07 524.087 403.657 523.491 404.362 523.063L428.759 508.238C429.624 507.712 430.309 506.936 430.724 506.013L444.009 476.418C444.815 474.621 446.601 473.465 448.57 473.465H460.952C461.622 473.465 462.285 473.6 462.902 473.861L500.13 489.623C501.687 490.283 503.472 490.11 504.875 489.165L554.374 455.785L579.261 438.331C579.91 437.876 580.441 437.273 580.811 436.572L598.969 402.178C599.416 401.332 600.097 400.632 600.93 400.16L632.72 382.18C633.159 381.932 633.558 381.619 633.903 381.251L649.015 365.164C649.372 364.784 649.786 364.462 650.242 364.21L677.763 349.012C678.053 348.852 678.359 348.721 678.675 348.621L707.419 339.548C708.541 339.194 709.752 339.247 710.839 339.698L732.72 348.771L769.096 363.598C770.62 364.219 771.741 365.551 772.093 367.159L783.454 419.083C783.514 419.356 783.55 419.633 783.564 419.912L789.364 540.775C789.474 543.056 791.116 544.974 793.354 545.433L809.165 548.677C812.035 549.265 813.786 552.184 812.955 554.993L795.558 613.81C795.257 614.827 794.64 615.722 793.797 616.366L766.806 636.97C766.568 637.152 766.347 637.354 766.145 637.576L740.872 665.298C740.674 665.516 740.495 665.75 740.338 665.999L697.543 733.852C697.278 734.272 696.952 734.651 696.575 734.975L649.554 775.431L576.357 827.887C575.031 828.837 573.326 829.081 571.787 828.54L558.102 823.733C555.917 822.966 553.491 823.799 552.238 825.748L545.312 836.527C544.605 837.627 543.496 838.406 542.221 838.698L514.644 845.01C514.03 845.15 513.396 845.174 512.774 845.079L468.349 838.3C468.099 838.262 467.847 838.243 467.595 838.243H432.343C430.908 838.243 429.543 838.859 428.594 839.934L416.574 853.552C415.755 854.48 414.622 855.071 413.392 855.211L372.144 859.922C371.067 860.045 370.059 860.514 369.272 861.26L356.222 873.629C355.293 874.509 354.062 875 352.782 875H333.736C332.695 875 331.68 874.675 330.833 874.071L321.411 867.35C321.169 867.177 320.911 867.026 320.642 866.899L307.771 860.824C306.791 860.361 305.988 859.593 305.483 858.635L298.407 845.222L288.242 829.403L272.267 799.345C271.311 797.546 271.542 795.346 272.851 793.785L286.038 778.059C287.366 776.475 287.583 774.237 286.584 772.428L251.741 709.361L207.437 624.187C206.558 622.495 206.716 620.451 207.847 618.915L222.239 599.366C224.114 596.819 227.852 596.631 229.973 598.976L244.234 614.737C244.616 615.159 245.067 615.513 245.568 615.783L269.574 628.734C270.303 629.127 271.119 629.333 271.948 629.333H304.382C305.594 629.333 306.764 628.893 307.676 628.095L336.342 602.993C337.48 601.996 338.106 600.538 338.043 599.026L332.489 464.361Z" fill="black"/>
<path d="M555.772 457.857L555.791 457.845L555.81 457.832L580.696 440.378C581.67 439.696 582.467 438.791 583.022 437.739L601.18 403.345C601.404 402.922 601.744 402.572 602.16 402.336L633.951 384.356C634.609 383.984 635.207 383.514 635.725 382.963L650.837 366.875C651.016 366.685 651.223 366.524 651.451 366.398L678.972 351.2C679.117 351.12 679.27 351.055 679.428 351.005L708.171 341.932C708.732 341.755 709.338 341.782 709.881 342.007L731.762 351.08L731.769 351.083L731.776 351.086L768.152 365.913C768.914 366.223 769.475 366.889 769.651 367.693L781.012 419.618C781.042 419.754 781.06 419.893 781.067 420.032L786.867 540.894C787.031 544.317 789.494 547.193 792.851 547.882L808.663 551.126C810.098 551.42 810.974 552.879 810.558 554.284L793.16 613.1C793.01 613.609 792.702 614.057 792.28 614.378L765.289 634.983C764.932 635.255 764.6 635.559 764.298 635.891L739.025 663.614C738.727 663.94 738.459 664.292 738.224 664.666L695.428 732.518C695.296 732.729 695.133 732.918 694.944 733.08L648.007 773.463L574.9 825.855C574.238 826.33 573.385 826.452 572.616 826.182L558.931 821.374C555.653 820.223 552.013 821.473 550.135 824.396L543.209 835.176C542.856 835.726 542.301 836.115 541.663 836.261L514.086 842.573C513.779 842.643 513.462 842.655 513.151 842.607L468.726 835.829C468.351 835.772 467.973 835.743 467.595 835.743H432.343C430.191 835.743 428.144 836.667 426.72 838.28L414.699 851.898C414.29 852.362 413.723 852.657 413.109 852.727L371.861 857.438C370.245 857.622 368.733 858.327 367.552 859.446L354.502 871.815C354.038 872.255 353.422 872.5 352.782 872.5H333.736C333.216 872.5 332.708 872.338 332.284 872.035L322.863 865.315C322.499 865.056 322.113 864.829 321.709 864.638L308.838 858.563C308.348 858.332 307.947 857.948 307.694 857.469L300.618 844.056L300.568 843.961L300.51 843.871L290.401 828.138L274.474 798.171C273.996 797.272 274.112 796.172 274.766 795.392L287.954 779.665C289.946 777.29 290.271 773.933 288.772 771.219L253.945 708.18L209.655 623.033C209.215 622.188 209.295 621.165 209.86 620.397L224.252 600.848C225.19 599.575 227.059 599.48 228.12 600.653L242.38 616.415C242.953 617.048 243.629 617.578 244.381 617.984L268.387 630.934C269.481 631.524 270.704 631.833 271.948 631.833H304.382C306.199 631.833 307.955 631.173 309.323 629.976L337.989 604.874C339.696 603.379 340.635 601.19 340.541 598.923L334.987 464.258C334.908 462.343 336.923 461.055 338.627 461.931L351.953 468.778C352.495 469.056 352.916 469.521 353.138 470.088L367.31 506.186C367.579 506.87 367.532 507.638 367.183 508.286L360.104 521.418C359.514 522.512 359.206 523.735 359.206 524.977V533.604C359.206 537.746 362.564 541.104 366.706 541.104H391.654C394.309 541.104 396.766 539.7 398.115 537.413L404.805 526.066C405.014 525.712 405.308 525.414 405.66 525.2L430.057 510.374C431.355 509.586 432.382 508.422 433.004 507.036L446.29 477.441C446.693 476.543 447.586 475.965 448.57 475.965H460.952C461.287 475.965 461.619 476.033 461.927 476.163L499.155 491.926C501.491 492.915 504.169 492.656 506.272 491.237L555.772 457.857Z" stroke="black" stroke-width="5"/>
</g>
<g clip-path="url(#clip3_1_17)">
<rect x="835" y="701" width="8" height="40" rx="2.5" fill="#0F0F0F"/>
<path d="M809 727.5C809 717.835 816.835 710 826.5 710H851.5C861.165 710 869 717.835 869 727.5V876C869 878.761 866.761 881 864 881H814C811.239 881 809 878.761 809 876V727.5Z" fill="black"/>
<path d="M830.621 630.5L838.345 664.5L835.5 636L838.345 620.5L844.414 677.882L839.508 631.5L849.379 658.349L848 640.5C848 640.5 856 635.933 856 676.281C856 716.63 824 720.472 824 676.281C824 632.09 830.621 630.5 830.621 630.5Z" fill="black"/>
</g>
<g filter="url(#filter6_d_1_17)">
<path d="M648.75 749.426V850.313C648.75 851.025 648.128 851.615 647.383 851.566C620.166 849.762 598.923 850.806 577.972 855.026C557.034 859.242 536.44 866.62 510.527 877.425C510.208 877.558 509.826 877.554 509.51 877.414C484.946 866.51 464.974 859.594 443.988 855.646C423.005 851.698 401.063 850.728 372.57 851.661C371.844 851.684 371.25 851.101 371.25 850.408V749.468C371.25 748.796 371.807 748.228 372.501 748.22C430.556 747.574 461.779 751.374 508.457 773.647C509.406 774.1 510.524 774.136 511.501 773.744C564.395 752.524 594.724 746.791 647.525 748.181C648.207 748.199 648.75 748.76 648.75 749.426Z" stroke="white" stroke-width="2.5" shape-rendering="crispEdges"/>
</g>
<line x1="510" y1="773" x2="510" y2="876.5" stroke="white" stroke-width="2"/>
<path d="M158 879H213.5L228.5 959L296.5 1007.5L381 1033.33H610.5L712.5 1007.5L789 959L811.5 879H865.5C877.098 1026.41 864.302 1069.22 907 1069.5C907 1069.5 93.5165 1070.11 124 1069.5C154.484 1068.89 140.891 1073.87 158 879Z" fill="black" stroke="black" stroke-width="6" stroke-linejoin="round"/>
<mask id="path-24-inside-1_1_17" fill="white">
<ellipse cx="97.173" cy="773.916" rx="12.5" ry="50" transform="rotate(-40 97.173 773.916)"/>
</mask>
<path d="M94.4918 776.166C102.779 786.043 108.924 795.422 112.285 802.323C114.021 805.888 114.61 807.975 114.729 808.698C115.053 810.648 113.341 804.733 119.028 799.962L139.597 824.475C147.928 817.485 146.937 807.313 146.298 803.464C145.457 798.388 143.403 793.135 141.055 788.314C136.249 778.444 128.468 766.874 119.005 755.597L94.4918 776.166ZM119.028 799.962C124.714 795.19 130.242 797.903 128.378 797.246C127.687 797.002 125.733 796.06 122.524 793.731C116.312 789.224 108.142 781.543 99.8542 771.667L75.3407 792.236C84.8034 803.513 94.8465 813.185 103.732 819.632C108.072 822.781 112.888 825.716 117.741 827.426C121.421 828.723 131.266 831.466 139.597 824.475L119.028 799.962ZM99.8542 771.667C91.5667 761.79 85.4217 752.41 82.0612 745.509C80.3255 741.945 79.7364 739.857 79.6166 739.135C79.2932 737.184 81.0048 743.099 75.3182 747.871L54.749 723.357C46.4182 730.348 47.4094 740.52 48.0475 744.369C48.8892 749.445 50.9435 754.698 53.291 759.519C58.097 769.389 65.8781 780.959 75.3407 792.236L99.8542 771.667ZM75.3182 747.871C69.6316 752.642 64.1038 749.93 65.9682 750.587C66.6592 750.83 68.6126 751.773 71.8216 754.101C78.0343 758.609 86.2044 766.29 94.4918 776.166L119.005 755.597C109.543 744.32 99.4995 734.648 90.6143 728.201C86.2744 725.052 81.4577 722.117 76.6048 720.406C72.9253 719.11 63.0799 716.367 54.749 723.357L75.3182 747.871Z" fill="black" mask="url(#path-24-inside-1_1_17)"/>
<mask id="path-26-inside-2_1_17" fill="white">
<ellipse cx="73.8471" cy="671.71" rx="12.5" ry="50" transform="rotate(-30 73.8471 671.71)"/>
</mask>
<path d="M70.816 673.46C77.2625 684.625 81.6854 694.93 83.7965 702.309C84.8869 706.121 85.1045 708.279 85.097 709.012C85.0768 710.988 84.4183 704.866 90.8471 701.154L106.847 728.867C116.265 723.43 117.055 713.24 117.095 709.339C117.148 704.194 116.037 698.664 114.562 693.508C111.543 682.954 105.889 670.209 98.5288 657.46L70.816 673.46ZM90.8471 701.154C97.2759 697.443 102.249 701.074 100.527 700.103C99.8885 699.744 98.1285 698.476 95.3725 695.626C90.037 690.108 83.3247 681.125 76.8782 669.96L49.1654 685.96C56.526 698.709 64.737 709.978 72.3677 717.869C76.0949 721.724 80.3287 725.451 84.8109 727.978C88.2093 729.894 97.429 734.305 106.847 728.867L90.8471 701.154ZM76.8782 669.96C70.4317 658.794 66.0088 648.49 63.8978 641.11C62.8073 637.298 62.5897 635.14 62.5972 634.408C62.6174 632.431 63.2759 638.553 56.8471 642.265L40.8471 614.552C31.429 619.989 30.6388 630.179 30.5989 634.08C30.5462 639.226 31.6571 644.756 33.1318 649.911C36.151 660.465 41.8047 673.211 49.1654 685.96L76.8782 669.96ZM56.8471 642.265C50.4183 645.976 45.4456 642.345 47.1675 643.316C47.8057 643.676 49.5657 644.943 52.3217 647.793C57.6572 653.311 64.3695 662.294 70.816 673.46L98.5288 657.46C91.1682 644.711 82.9572 633.442 75.3265 625.55C71.5993 621.695 67.3655 617.968 62.8833 615.441C59.4849 613.525 50.2653 609.114 40.8471 614.552L56.8471 642.265Z" fill="black" mask="url(#path-26-inside-2_1_17)"/>
<mask id="path-28-inside-3_1_17" fill="white">
<ellipse cx="54.847" cy="570.709" rx="12.5" ry="50" transform="rotate(-16 54.847 570.709)"/>
</mask>
<path d="M51.4826 571.674C55.0364 584.068 56.8351 595.136 57.0981 602.807C57.234 606.769 56.9231 608.916 56.7386 609.625C56.2408 611.538 57.0829 605.438 64.2187 603.392L73.0391 634.153C83.493 631.155 86.7248 621.459 87.7073 617.684C89.0031 612.704 89.2631 607.069 89.0793 601.71C88.7032 590.739 86.3007 577.005 82.243 562.854L51.4826 571.674ZM64.2187 603.392C71.3545 601.346 75.301 606.073 73.865 604.714C73.3329 604.211 71.9317 602.555 69.9472 599.123C66.1051 592.478 61.7652 582.138 58.2115 569.745L27.4511 578.565C31.5088 592.716 36.7497 605.637 42.2445 615.14C44.9284 619.782 48.1348 624.423 51.8725 627.959C54.7065 630.64 62.5853 637.15 73.0391 634.153L64.2187 603.392ZM58.2115 569.745C54.6577 557.351 52.859 546.283 52.596 538.612C52.4601 534.649 52.771 532.503 52.9555 531.794C53.4533 529.881 52.6112 535.98 45.4754 538.026L36.655 507.266C26.2011 510.264 22.9693 519.96 21.9868 523.735C20.691 528.715 20.431 534.349 20.6148 539.708C20.9909 550.679 23.3934 564.414 27.4511 578.565L58.2115 569.745ZM45.4754 538.026C38.3396 540.073 34.3931 535.346 35.829 536.705C36.3612 537.208 37.7623 538.864 39.7469 542.296C43.589 548.941 47.9288 559.281 51.4826 571.674L82.243 562.854C78.1853 548.703 72.9444 535.782 67.4496 526.279C64.7657 521.637 61.5593 516.996 57.8216 513.46C54.9876 510.778 47.1088 504.268 36.655 507.266L45.4754 538.026Z" fill="black" mask="url(#path-28-inside-3_1_17)"/>
<mask id="path-30-inside-4_1_17" fill="white">
<ellipse cx="80.847" cy="461.709" rx="12.5" ry="50" transform="rotate(-9 80.847 461.709)"/>
</mask>
<path d="M77.3901 462.257C79.407 474.991 79.8434 486.196 79.1696 493.842C78.8215 497.792 78.2514 499.884 77.9818 500.565C77.2546 502.404 78.8338 496.452 86.1658 495.291L91.1717 526.897C101.913 525.195 106.302 515.966 107.738 512.338C109.631 507.553 110.575 501.993 111.046 496.651C112.01 485.716 111.299 471.791 108.996 457.251L77.3901 462.257ZM86.1658 495.291C93.4977 494.129 96.8388 499.302 95.5791 497.778C95.1123 497.214 93.9233 495.4 92.3719 491.751C89.3683 484.687 86.3208 473.896 84.3039 461.162L52.6979 466.168C55.0008 480.708 58.628 494.171 62.9237 504.273C65.0219 509.207 67.6388 514.204 70.9177 518.17C73.4037 521.176 80.4304 528.598 91.1717 526.897L86.1658 495.291ZM84.3039 461.162C82.287 448.428 81.8506 437.223 82.5244 429.577C82.8725 425.627 83.4426 423.534 83.7122 422.853C84.4394 421.015 82.8602 426.967 75.5282 428.128L70.5223 396.522C59.7811 398.223 55.3917 407.453 53.9564 411.081C52.0634 415.865 51.1187 421.426 50.648 426.767C49.6843 437.703 50.395 451.628 52.6979 466.168L84.3039 461.162ZM75.5282 428.128C68.1963 429.289 64.8552 424.117 66.1149 425.64C66.5817 426.205 67.7706 428.019 69.3221 431.668C72.3257 438.731 75.3732 449.523 77.3901 462.257L108.996 457.251C106.693 442.711 103.066 429.248 98.7703 419.146C96.6721 414.211 94.0552 409.214 90.7763 405.249C88.2903 402.242 81.2636 394.821 70.5223 396.522L75.5282 428.128Z" fill="black" mask="url(#path-30-inside-4_1_17)"/>
<mask id="path-32-inside-5_1_17" fill="white">
<ellipse cx="133.971" cy="773.467" rx="12.5" ry="50"/>
</mask>
<path d="M130.471 773.467C130.471 786.36 129.15 797.495 127.288 804.941C126.326 808.788 125.436 810.765 125.063 811.396C124.057 813.098 126.548 807.467 133.971 807.467L133.971 839.467C144.846 839.467 150.626 831.037 152.611 827.679C155.229 823.249 157.032 817.904 158.332 812.703C160.995 802.053 162.471 788.188 162.471 773.467L130.471 773.467ZM133.971 807.467C141.395 807.467 143.885 813.098 142.88 811.396C142.507 810.765 141.616 808.788 140.655 804.941C138.793 797.495 137.471 786.36 137.471 773.467L105.471 773.467C105.471 788.188 106.948 802.053 109.61 812.703C110.911 817.904 112.714 823.249 115.332 827.679C117.317 831.037 123.096 839.467 133.971 839.467L133.971 807.467ZM137.471 773.467C137.471 760.574 138.793 749.438 140.655 741.992C141.616 738.146 142.507 736.168 142.88 735.537C143.885 733.835 141.395 739.467 133.971 739.467L133.971 707.467C123.096 707.467 117.317 715.896 115.332 719.255C112.714 723.684 110.911 729.029 109.61 734.231C106.948 744.881 105.471 758.745 105.471 773.467L137.471 773.467ZM133.971 739.467C126.548 739.467 124.057 733.835 125.063 735.537C125.436 736.168 126.326 738.146 127.288 741.992C129.15 749.438 130.471 760.574 130.471 773.467L162.471 773.467C162.471 758.745 160.995 744.881 158.332 734.231C157.032 729.029 155.229 723.684 152.611 719.255C150.626 715.896 144.846 707.467 133.971 707.467L133.971 739.467Z" fill="black" mask="url(#path-32-inside-5_1_17)"/>
<mask id="path-34-inside-6_1_17" fill="white">
<ellipse cx="110.645" cy="671.26" rx="12.5" ry="50" transform="rotate(10 110.645 671.26)"/>
</mask>
<path d="M107.198 670.652C104.96 683.349 101.724 694.086 98.5978 701.096C96.9829 704.717 95.7625 706.51 95.2859 707.066C93.9998 708.567 97.4306 703.454 104.741 704.743L99.1845 736.257C109.894 738.146 117.05 730.848 119.588 727.885C122.935 723.977 125.639 719.027 127.823 714.13C132.294 704.104 136.156 690.706 138.712 676.209L107.198 670.652ZM104.741 704.743C112.052 706.032 113.527 712.011 112.832 710.16C112.574 709.474 112.041 707.372 111.762 703.417C111.221 695.76 111.853 684.565 114.092 671.868L82.5782 666.311C80.0219 680.808 79.0683 694.719 79.841 705.669C80.2184 711.018 81.0659 716.595 82.8752 721.411C84.2469 725.064 88.4745 734.369 99.1845 736.257L104.741 704.743ZM114.092 671.868C116.331 659.17 119.566 648.434 122.693 641.424C124.308 637.803 125.528 636.01 126.005 635.453C127.291 633.952 123.86 639.065 116.549 637.776L122.106 606.262C111.396 604.374 104.241 611.672 101.703 614.635C98.3552 618.542 95.6515 623.493 93.4675 628.39C88.9961 638.415 85.1345 651.813 82.5782 666.311L114.092 671.868ZM116.549 637.776C109.239 636.487 107.764 630.509 108.459 632.36C108.716 633.045 109.25 635.148 109.529 639.103C110.069 646.759 109.437 657.955 107.198 670.652L138.712 676.209C141.269 661.711 142.222 647.801 141.449 636.85C141.072 631.502 140.225 625.925 138.415 621.108C137.044 617.456 132.816 608.151 122.106 606.262L116.549 637.776Z" fill="black" mask="url(#path-34-inside-6_1_17)"/>
<mask id="path-36-inside-7_1_17" fill="white">
<ellipse cx="91.6452" cy="570.26" rx="12.5" ry="50" transform="rotate(24 91.6452 570.26)"/>
</mask>
<path d="M88.4478 568.837C83.2037 580.615 77.4671 590.25 72.7376 596.295C70.2947 599.418 68.6768 600.863 68.0797 601.287C66.4687 602.433 71.0346 598.301 77.8162 601.321L64.8006 630.554C74.7355 634.977 83.4437 629.627 86.6232 627.367C90.8167 624.385 94.6377 620.236 97.9415 616.012C104.705 607.366 111.694 595.301 117.681 581.852L88.4478 568.837ZM77.8162 601.321C84.5977 604.34 84.5828 610.498 84.356 608.534C84.272 607.806 84.2629 605.637 84.9489 601.732C86.277 594.172 89.5986 583.462 94.8426 571.684L65.6092 558.668C59.6215 572.117 55.3309 585.383 53.4315 596.195C52.5038 601.476 51.9771 607.092 52.5672 612.204C53.0147 616.079 54.8656 626.131 64.8006 630.554L77.8162 601.321ZM94.8426 571.684C100.087 559.905 105.823 550.27 110.553 544.225C112.996 541.102 114.614 539.658 115.211 539.233C116.822 538.088 112.256 542.219 105.474 539.2L118.49 509.966C108.555 505.543 99.8467 510.893 96.6672 513.154C92.4737 516.135 88.6527 520.285 85.3489 524.508C78.5849 533.154 71.5968 545.22 65.6092 558.668L94.8426 571.684ZM105.474 539.2C98.6927 536.18 98.7076 530.023 98.9344 531.986C99.0184 532.714 99.0275 534.883 98.3415 538.788C97.0134 546.348 93.6918 557.058 88.4478 568.837L117.681 581.852C123.669 568.404 127.959 555.137 129.859 544.325C130.787 539.044 131.313 533.428 130.723 528.316C130.276 524.441 128.425 514.389 118.49 509.966L105.474 539.2Z" fill="black" mask="url(#path-36-inside-7_1_17)"/>
<mask id="path-38-inside-8_1_17" fill="white">
<ellipse cx="117.645" cy="461.26" rx="12.5" ry="50" transform="rotate(31 117.645 461.26)"/>
</mask>
<path d="M114.645 459.457C108.005 470.509 101.137 479.373 95.7056 484.797C92.9004 487.599 91.1185 488.835 90.4741 489.184C88.7354 490.124 93.7708 486.58 100.134 490.404L83.6526 517.833C92.9745 523.434 102.27 519.185 105.701 517.329C110.227 514.88 114.525 511.228 118.319 507.439C126.086 499.681 134.492 488.557 142.074 475.939L114.645 459.457ZM100.134 490.404C106.497 494.227 105.732 500.337 105.746 498.36C105.751 497.627 106.006 495.474 107.163 491.681C109.403 484.34 114.005 474.114 120.645 463.063L93.2159 446.581C85.6339 459.2 79.7585 471.845 76.5556 482.345C74.9912 487.474 73.784 492.983 73.7468 498.129C73.7186 502.03 74.3308 512.232 83.6526 517.833L100.134 490.404ZM120.645 463.063C127.286 452.011 134.154 443.147 139.585 437.723C142.39 434.921 144.172 433.685 144.816 433.336C146.555 432.396 141.52 435.94 135.156 432.116L151.638 404.687C142.316 399.086 133.021 403.335 129.589 405.191C125.064 407.64 120.765 411.292 116.972 415.081C109.204 422.839 100.798 433.963 93.2159 446.581L120.645 463.063ZM135.156 432.116C128.793 428.293 129.559 422.183 129.544 424.16C129.539 424.893 129.284 427.046 128.127 430.839C125.887 438.18 121.285 448.406 114.645 459.457L142.074 475.939C149.656 463.32 155.532 450.675 158.735 440.175C160.299 435.047 161.506 429.537 161.544 424.391C161.572 420.49 160.959 410.288 151.638 404.687L135.156 432.116Z" fill="black" mask="url(#path-38-inside-8_1_17)"/>
<mask id="path-40-inside-9_1_17" fill="white">
<ellipse rx="12.5" ry="50" transform="matrix(-0.766044 -0.642788 -0.642788 0.766044 927.827 794.916)"/>
</mask>
<path d="M930.508 797.166C922.221 807.043 916.076 816.422 912.715 823.323C910.979 826.888 910.39 828.975 910.271 829.698C909.947 831.648 911.659 825.733 905.972 820.962L885.403 845.475C877.072 838.485 878.063 828.313 878.702 824.464C879.543 819.388 881.597 814.135 883.945 809.314C888.751 799.444 896.532 787.874 905.995 776.597L930.508 797.166ZM905.972 820.962C900.286 816.19 894.758 818.903 896.622 818.246C897.313 818.002 899.267 817.06 902.476 814.731C908.688 810.224 916.858 802.543 925.146 792.667L949.659 813.236C940.197 824.513 930.154 834.185 921.268 840.632C916.928 843.781 912.112 846.716 907.259 848.426C903.579 849.723 893.734 852.466 885.403 845.475L905.972 820.962ZM925.146 792.667C933.433 782.79 939.578 773.41 942.939 766.509C944.675 762.945 945.264 760.857 945.383 760.135C945.707 758.184 943.995 764.099 949.682 768.871L970.251 744.357C978.582 751.348 977.591 761.52 976.952 765.369C976.111 770.445 974.057 775.698 971.709 780.519C966.903 790.389 959.122 801.959 949.659 813.236L925.146 792.667ZM949.682 768.871C955.368 773.642 960.896 770.93 959.032 771.587C958.341 771.83 956.387 772.773 953.178 775.101C946.966 779.609 938.796 787.29 930.508 797.166L905.995 776.597C915.457 765.32 925.5 755.648 934.386 749.201C938.726 746.052 943.542 743.117 948.395 741.406C952.075 740.11 961.92 737.367 970.251 744.357L949.682 768.871Z" fill="black" mask="url(#path-40-inside-9_1_17)"/>
<mask id="path-42-inside-10_1_17" fill="white">
<ellipse rx="12.5" ry="50" transform="matrix(-0.866025 -0.5 -0.5 0.866025 951.153 692.71)"/>
</mask>
<path d="M954.184 694.46C947.737 705.625 943.315 715.93 941.204 723.309C940.113 727.121 939.895 729.279 939.903 730.012C939.923 731.988 940.582 725.866 934.153 722.154L918.153 749.867C908.735 744.43 907.945 734.24 907.905 730.339C907.852 725.194 908.963 719.664 910.438 714.508C913.457 703.954 919.111 691.209 926.471 678.46L954.184 694.46ZM934.153 722.154C927.724 718.443 922.751 722.074 924.473 721.103C925.112 720.744 926.872 719.476 929.627 716.626C934.963 711.108 941.675 702.125 948.122 690.96L975.835 706.96C968.474 719.709 960.263 730.978 952.632 738.869C948.905 742.724 944.671 746.451 940.189 748.978C936.791 750.894 927.571 755.305 918.153 749.867L934.153 722.154ZM948.122 690.96C954.568 679.794 958.991 669.49 961.102 662.11C962.193 658.298 962.41 656.14 962.403 655.408C962.383 653.431 961.724 659.553 968.153 663.265L984.153 635.552C993.571 640.989 994.361 651.179 994.401 655.08C994.454 660.226 993.343 665.756 991.868 670.911C988.849 681.465 983.195 694.211 975.835 706.96L948.122 690.96ZM968.153 663.265C974.582 666.976 979.554 663.345 977.832 664.316C977.194 664.676 975.434 665.943 972.678 668.793C967.343 674.311 960.63 683.294 954.184 694.46L926.471 678.46C933.832 665.711 942.043 654.442 949.674 646.55C953.401 642.695 957.634 638.968 962.117 636.441C965.515 634.525 974.735 630.114 984.153 635.552L968.153 663.265Z" fill="black" mask="url(#path-42-inside-10_1_17)"/>
<mask id="path-44-inside-11_1_17" fill="white">
<ellipse rx="12.5" ry="50" transform="matrix(-0.961262 -0.275637 -0.275637 0.961262 970.153 591.709)"/>
</mask>
<path d="M973.517 592.674C969.964 605.068 968.165 616.136 967.902 623.807C967.766 627.769 968.077 629.916 968.261 630.625C968.759 632.538 967.917 626.438 960.781 624.392L951.961 655.153C941.507 652.155 938.275 642.459 937.293 638.684C935.997 633.704 935.737 628.069 935.921 622.71C936.297 611.739 938.699 598.005 942.757 583.854L973.517 592.674ZM960.781 624.392C953.645 622.346 949.699 627.073 951.135 625.714C951.667 625.211 953.068 623.555 955.053 620.123C958.895 613.478 963.235 603.138 966.789 590.745L997.549 599.565C993.491 613.716 988.25 626.637 982.755 636.14C980.072 640.782 976.865 645.423 973.127 648.959C970.294 651.64 962.415 658.15 951.961 655.153L960.781 624.392ZM966.789 590.745C970.342 578.351 972.141 567.283 972.404 559.612C972.54 555.649 972.229 553.503 972.045 552.794C971.547 550.881 972.389 556.98 979.525 559.026L988.345 528.266C998.799 531.264 1002.03 540.96 1003.01 544.735C1004.31 549.715 1004.57 555.349 1004.39 560.708C1004.01 571.679 1001.61 585.414 997.549 599.565L966.789 590.745ZM979.525 559.026C986.66 561.073 990.607 556.346 989.171 557.705C988.639 558.208 987.238 559.864 985.253 563.296C981.411 569.941 977.071 580.281 973.517 592.674L942.757 583.854C946.815 569.703 952.056 556.782 957.55 547.279C960.234 542.637 963.441 537.996 967.178 534.46C970.012 531.778 977.891 525.268 988.345 528.266L979.525 559.026Z" fill="black" mask="url(#path-44-inside-11_1_17)"/>
<mask id="path-46-inside-12_1_17" fill="white">
<ellipse rx="12.5" ry="50" transform="matrix(-0.987688 -0.156434 -0.156434 0.987688 944.153 482.709)"/>
</mask>
<path d="M947.61 483.257C945.593 495.991 945.157 507.196 945.83 514.842C946.178 518.792 946.749 520.884 947.018 521.565C947.745 523.404 946.166 517.452 938.834 516.291L933.828 547.897C923.087 546.195 918.698 536.966 917.262 533.338C915.369 528.553 914.425 522.993 913.954 517.651C912.99 506.716 913.701 492.791 916.004 478.251L947.61 483.257ZM938.834 516.291C931.502 515.129 928.161 520.302 929.421 518.778C929.888 518.214 931.077 516.4 932.628 512.751C935.632 505.687 938.679 494.896 940.696 482.162L972.302 487.168C969.999 501.708 966.372 515.171 962.076 525.273C959.978 530.207 957.361 535.204 954.082 539.17C951.596 542.176 944.57 549.598 933.828 547.897L938.834 516.291ZM940.696 482.162C942.713 469.428 943.149 458.223 942.476 450.577C942.128 446.627 941.557 444.534 941.288 443.853C940.561 442.015 942.14 447.967 949.472 449.128L954.478 417.522C965.219 419.223 969.608 428.453 971.044 432.081C972.937 436.865 973.881 442.426 974.352 447.767C975.316 458.703 974.605 472.628 972.302 487.168L940.696 482.162ZM949.472 449.128C956.804 450.289 960.145 445.117 958.885 446.64C958.418 447.205 957.229 449.019 955.678 452.668C952.674 459.731 949.627 470.523 947.61 483.257L916.004 478.251C918.307 463.711 921.934 450.248 926.23 440.146C928.328 435.211 930.945 430.214 934.224 426.249C936.71 423.242 943.736 415.821 954.478 417.522L949.472 449.128Z" fill="black" mask="url(#path-46-inside-12_1_17)"/>
<mask id="path-48-inside-13_1_17" fill="white">
<ellipse rx="12.5" ry="50" transform="matrix(-1 -7.3421e-09 -7.3421e-09 1 891.029 794.467)"/>
</mask>
<path d="M894.529 794.467C894.529 807.36 895.85 818.495 897.712 825.941C898.674 829.788 899.564 831.765 899.937 832.396C900.943 834.098 898.452 828.467 891.029 828.467L891.029 860.467C880.154 860.467 874.374 852.037 872.389 848.679C869.771 844.249 867.968 838.904 866.668 833.703C864.005 823.053 862.529 809.188 862.529 794.467L894.529 794.467ZM891.029 828.467C883.605 828.467 881.115 834.098 882.12 832.396C882.493 831.765 883.384 829.788 884.345 825.941C886.207 818.495 887.529 807.36 887.529 794.467L919.529 794.467C919.529 809.188 918.052 823.053 915.39 833.703C914.089 838.904 912.286 844.249 909.668 848.679C907.683 852.037 901.904 860.467 891.029 860.467L891.029 828.467ZM887.529 794.467C887.529 781.574 886.207 770.438 884.345 762.992C883.384 759.146 882.493 757.168 882.12 756.537C881.115 754.835 883.605 760.467 891.029 760.467L891.029 728.467C901.904 728.467 907.683 736.896 909.668 740.255C912.286 744.684 914.089 750.029 915.39 755.231C918.052 765.881 919.529 779.745 919.529 794.467L887.529 794.467ZM891.029 760.467C898.452 760.467 900.943 754.835 899.937 756.537C899.564 757.168 898.674 759.146 897.712 762.992C895.85 770.438 894.529 781.574 894.529 794.467L862.529 794.467C862.529 779.745 864.005 765.881 866.668 755.231C867.968 750.029 869.771 744.684 872.389 740.255C874.374 736.896 880.154 728.467 891.029 728.467L891.029 760.467Z" fill="black" mask="url(#path-48-inside-13_1_17)"/>
<mask id="path-50-inside-14_1_17" fill="white">
<ellipse rx="12.5" ry="50" transform="matrix(-0.984808 0.173648 0.173648 0.984808 914.355 692.26)"/>
</mask>
<path d="M917.802 691.652C920.04 704.349 923.276 715.086 926.402 722.096C928.017 725.717 929.237 727.51 929.714 728.066C931 729.567 927.569 724.454 920.259 725.743L925.816 757.257C915.106 759.146 907.95 751.848 905.412 748.885C902.065 744.977 899.361 740.027 897.177 735.13C892.706 725.104 888.844 711.706 886.288 697.209L917.802 691.652ZM920.259 725.743C912.948 727.032 911.473 733.011 912.168 731.16C912.426 730.474 912.959 728.372 913.238 724.417C913.779 716.76 913.147 705.565 910.908 692.868L942.422 687.311C944.978 701.808 945.932 715.719 945.159 726.669C944.782 732.018 943.934 737.595 942.125 742.411C940.753 746.064 936.525 755.369 925.816 757.257L920.259 725.743ZM910.908 692.868C908.669 680.17 905.434 669.434 902.307 662.424C900.692 658.803 899.472 657.01 898.995 656.453C897.709 654.952 901.14 660.065 908.451 658.776L902.894 627.262C913.604 625.374 920.759 632.672 923.297 635.635C926.645 639.542 929.349 644.493 931.533 649.39C936.004 659.415 939.865 672.813 942.422 687.311L910.908 692.868ZM908.451 658.776C915.761 657.487 917.236 651.509 916.541 653.36C916.284 654.045 915.75 656.148 915.471 660.103C914.931 667.759 915.563 678.955 917.802 691.652L886.288 697.209C883.731 682.711 882.778 668.801 883.551 657.85C883.928 652.502 884.775 646.925 886.585 642.108C887.956 638.456 892.184 629.151 902.894 627.262L908.451 658.776Z" fill="black" mask="url(#path-50-inside-14_1_17)"/>
<mask id="path-52-inside-15_1_17" fill="white">
<ellipse rx="12.5" ry="50" transform="matrix(-0.913545 0.406737 0.406737 0.913545 933.355 591.26)"/>
</mask>
<path d="M936.552 589.837C941.796 601.615 947.533 611.25 952.262 617.295C954.705 620.418 956.323 621.863 956.92 622.287C958.531 623.433 953.965 619.301 947.184 622.321L960.199 651.554C950.264 655.977 941.556 650.627 938.377 648.367C934.183 645.385 930.362 641.236 927.058 637.012C920.295 628.366 913.306 616.301 907.319 602.852L936.552 589.837ZM947.184 622.321C940.402 625.34 940.417 631.498 940.644 629.534C940.728 628.806 940.737 626.637 940.051 622.732C938.723 615.172 935.401 604.462 930.157 592.684L959.391 579.668C965.379 593.117 969.669 606.383 971.568 617.195C972.496 622.476 973.023 628.092 972.433 633.204C971.985 637.079 970.134 647.131 960.199 651.554L947.184 622.321ZM930.157 592.684C924.913 580.905 919.177 571.27 914.447 565.225C912.004 562.102 910.386 560.658 909.789 560.233C908.178 559.088 912.744 563.219 919.526 560.2L906.51 530.966C916.445 526.543 925.153 531.893 928.333 534.154C932.526 537.135 936.347 541.285 939.651 545.508C946.415 554.154 953.403 566.22 959.391 579.668L930.157 592.684ZM919.526 560.2C926.307 557.18 926.292 551.023 926.066 552.986C925.982 553.714 925.972 555.883 926.658 559.788C927.987 567.348 931.308 578.058 936.552 589.837L907.319 602.852C901.331 589.404 897.041 576.137 895.141 565.325C894.213 560.044 893.687 554.428 894.277 549.316C894.724 545.441 896.575 535.389 906.51 530.966L919.526 560.2Z" fill="black" mask="url(#path-52-inside-15_1_17)"/>
<mask id="path-54-inside-16_1_17" fill="white">
<ellipse rx="12.5" ry="50" transform="matrix(-0.857167 0.515038 0.515038 0.857167 907.355 482.26)"/>
</mask>
<path d="M910.355 480.457C916.995 491.509 923.863 500.373 929.294 505.797C932.1 508.599 933.882 509.835 934.526 510.184C936.265 511.124 931.229 507.58 924.866 511.404L941.347 538.833C932.026 544.434 922.73 540.185 919.299 538.329C914.773 535.88 910.475 532.228 906.681 528.439C898.914 520.681 890.508 509.557 882.926 496.939L910.355 480.457ZM924.866 511.404C918.503 515.227 919.268 521.337 919.254 519.36C919.249 518.627 918.994 516.474 917.837 512.681C915.597 505.34 910.995 495.114 904.355 484.063L931.784 467.581C939.366 480.2 945.241 492.845 948.444 503.345C950.009 508.474 951.216 513.983 951.253 519.129C951.281 523.03 950.669 533.232 941.347 538.833L924.866 511.404ZM904.355 484.063C897.714 473.011 890.846 464.147 885.415 458.723C882.61 455.921 880.828 454.685 880.184 454.336C878.445 453.396 883.48 456.94 889.844 453.116L873.362 425.687C882.684 420.086 891.979 424.335 895.411 426.191C899.936 428.64 904.235 432.292 908.028 436.081C915.796 443.839 924.202 454.963 931.784 467.581L904.355 484.063ZM889.844 453.116C896.207 449.293 895.441 443.183 895.456 445.16C895.461 445.893 895.716 448.046 896.873 451.839C899.113 459.18 903.715 469.406 910.355 480.457L882.926 496.939C875.344 484.32 869.468 471.675 866.265 461.175C864.701 456.047 863.494 450.537 863.456 445.391C863.428 441.49 864.041 431.288 873.362 425.687L889.844 453.116Z" fill="black" mask="url(#path-54-inside-16_1_17)"/>
</g>
<defs>
<filter id="filter0_d_1_17" x="0" y="0" width="1016" height="1290" filterUnits="userSpaceOnUse" color-interpolation-filters="sRGB">
<feFlood flood-opacity="0" result="BackgroundImageFix"/>
<feColorMatrix in="SourceAlpha" type="matrix" values="0 0 0 0 0 0 0 0 0 0 0 0 0 0 0 0 0 0 127 0" result="hardAlpha"/>
<feOffset dy="4"/>
<feGaussianBlur stdDeviation="2"/>
<feComposite in2="hardAlpha" operator="out"/>
<feColorMatrix type="matrix" values="0 0 0 0 0 0 0 0 0 0 0 0 0 0 0 0 0 0 0.25 0"/>
<feBlend mode="normal" in2="BackgroundImageFix" result="effect1_dropShadow_1_17"/>
<feBlend mode="normal" in="SourceGraphic" in2="effect1_dropShadow_1_17" result="shape"/>
</filter>
<filter id="filter1_d_1_17" x="67.418" y="57.5" width="882.953" height="241.537" filterUnits="userSpaceOnUse" color-interpolation-filters="sRGB">
<feFlood flood-opacity="0" result="BackgroundImageFix"/>
<feColorMatrix in="SourceAlpha" type="matrix" values="0 0 0 0 0 0 0 0 0 0 0 0 0 0 0 0 0 0 127 0" result="hardAlpha"/>
<feOffset dy="4"/>
<feGaussianBlur stdDeviation="2"/>
<feComposite in2="hardAlpha" operator="out"/>
<feColorMatrix type="matrix" values="0 0 0 0 0 0 0 0 0 0 0 0 0 0 0 0 0 0 0.25 0"/>
<feBlend mode="normal" in2="BackgroundImageFix" result="effect1_dropShadow_1_17"/>
<feBlend mode="normal" in="SourceGraphic" in2="effect1_dropShadow_1_17" result="shape"/>
</filter>
<filter id="filter2_d_1_17" x="48" y="1127" width="928" height="78" filterUnits="userSpaceOnUse" color-interpolation-filters="sRGB">
<feFlood flood-opacity="0" result="BackgroundImageFix"/>
<feColorMatrix in="SourceAlpha" type="matrix" values="0 0 0 0 0 0 0 0 0 0 0 0 0 0 0 0 0 0 127 0" result="hardAlpha"/>
<feOffset dy="4"/>
<feGaussianBlur stdDeviation="2"/>
<feComposite in2="hardAlpha" operator="out"/>
<feColorMatrix type="matrix" values="0 0 0 0 0 0 0 0 0 0 0 0 0 0 0 0 0 0 0.25 0"/>
<feBlend mode="normal" in2="BackgroundImageFix" result="effect1_dropShadow_1_17"/>
<feBlend mode="normal" in="SourceGraphic" in2="effect1_dropShadow_1_17" result="shape"/>
</filter>
<filter id="filter3_d_1_17" x="66" y="1071" width="905" height="106" filterUnits="userSpaceOnUse" color-interpolation-filters="sRGB">
<feFlood flood-opacity="0" result="BackgroundImageFix"/>
<feColorMatrix in="SourceAlpha" type="matrix" values="0 0 0 0 0 0 0 0 0 0 0 0 0 0 0 0 0 0 127 0" result="hardAlpha"/>
<feOffset dy="4"/>
<feGaussianBlur stdDeviation="2"/>
<feComposite in2="hardAlpha" operator="out"/>
<feColorMatrix type="matrix" values="0 0 0 0 0 0 0 0 0 0 0 0 0 0 0 0 0 0 0.25 0"/>
<feBlend mode="normal" in2="BackgroundImageFix" result="effect1_dropShadow_1_17"/>
<feBlend mode="normal" in="SourceGraphic" in2="effect1_dropShadow_1_17" result="shape"/>
</filter>
<filter id="filter4_d_1_17" x="243.544" y="715.551" width="532.969" height="269.949" filterUnits="userSpaceOnUse" color-interpolation-filters="sRGB">
<feFlood flood-opacity="0" result="BackgroundImageFix"/>
<feColorMatrix in="SourceAlpha" type="matrix" values="0 0 0 0 0 0 0 0 0 0 0 0 0 0 0 0 0 0 127 0" result="hardAlpha"/>
<feOffset dy="4"/>
<feGaussianBlur stdDeviation="2"/>
<feComposite in2="hardAlpha" operator="out"/>
<feColorMatrix type="matrix" values="0 0 0 0 1 0 0 0 0 1 0 0 0 0 1 0 0 0 0.3 0"/>
<feBlend mode="normal" in2="BackgroundImageFix" result="effect1_dropShadow_1_17"/>
<feBlend mode="normal" in="SourceGraphic" in2="effect1_dropShadow_1_17" result="shape"/>
</filter>
<filter id="filter5_d_1_17" x="202.873" y="339.316" width="614.289" height="543.684" filterUnits="userSpaceOnUse" color-interpolation-filters="sRGB">
<feFlood flood-opacity="0" result="BackgroundImageFix"/>
<feColorMatrix in="SourceAlpha" type="matrix" values="0 0 0 0 0 0 0 0 0 0 0 0 0 0 0 0 0 0 127 0" result="hardAlpha"/>
<feOffset dy="4"/>
<feGaussianBlur stdDeviation="2"/>
<feComposite in2="hardAlpha" operator="out"/>
<feColorMatrix type="matrix" values="0 0 0 0 0 0 0 0 0 0 0 0 0 0 0 0 0 0 0.25 0"/>
<feBlend mode="normal" in2="BackgroundImageFix" result="effect1_dropShadow_1_17"/>
<feBlend mode="normal" in="SourceGraphic" in2="effect1_dropShadow_1_17" result="shape"/>
</filter>
<filter id="filter6_d_1_17" x="366" y="743.735" width="288" height="140.037" filterUnits="userSpaceOnUse" color-interpolation-filters="sRGB">
<feFlood flood-opacity="0" result="BackgroundImageFix"/>
<feColorMatrix in="SourceAlpha" type="matrix" values="0 0 0 0 0 0 0 0 0 0 0 0 0 0 0 0 0 0 127 0" result="hardAlpha"/>
<feOffset dy="1"/>
<feGaussianBlur stdDeviation="2"/>
<feComposite in2="hardAlpha" operator="out"/>
<feColorMatrix type="matrix" values="0 0 0 0 1 0 0 0 0 1 0 0 0 0 1 0 0 0 0.5 0"/>
<feBlend mode="normal" in2="BackgroundImageFix" result="effect1_dropShadow_1_17"/>
<feBlend mode="normal" in="SourceGraphic" in2="effect1_dropShadow_1_17" result="shape"/>
</filter>
<clipPath id="clip0_1_17">
<rect width="1008" height="1282" fill="white" transform="translate(4)"/>
</clipPath>
<clipPath id="clip1_1_17">
<rect width="681" height="700" fill="white" transform="translate(168 175)"/>
</clipPath>
<clipPath id="clip2_1_17">
<rect width="151" height="285" fill="white" transform="translate(111 630)"/>
</clipPath>
<clipPath id="clip3_1_17">
<rect width="151" height="285" fill="white" transform="translate(764 628)"/>
</clipPath>
</defs>
</svg>
